<svg width="41" height="42" viewBox="0 0 41 42" fill="none" xmlns="http://www.w3.org/2000/svg">
<rect x="0.078125" y="0.396484" width="40.8" height="40.8" rx="9.6" fill="#E8FBFE"/>
<g clip-path="url(#clip0_1397_19368)">
<path d="M21.9497 28.898V28.778H21.8297H11.7047C10.6545 28.778 9.79969 27.9232 9.79969 26.873V12.023C9.79969 10.9729 10.6545 10.118 11.7047 10.118H29.2547C30.3049 10.118 31.1604 10.9729 31.1604 12.023V26.8737C31.1604 27.9239 30.3055 28.7787 29.2554 28.7787H27.2304H27.1104V28.8987V30.9237C27.1104 31.1024 27.0243 31.2701 26.8794 31.3745L26.8794 31.3745C26.7841 31.4431 26.6704 31.4787 26.5554 31.4787C26.4968 31.4787 26.4382 31.4693 26.3803 31.4499L26.38 31.4498L24.5683 30.8457L24.5304 30.833L24.4924 30.8457L22.6807 31.4498L22.6803 31.4499C22.5114 31.507 22.3251 31.4782 22.1808 31.3739L22.1807 31.3738C22.0351 31.2688 21.9497 31.1012 21.9497 30.923V28.898ZM27.1495 21.2519L27.3497 21.4315V21.1625V15.9873V15.8943L27.2596 15.8711C26.3543 15.6377 25.64 14.9228 25.4059 14.018L25.3826 13.928H25.2897H15.669H15.5761L15.5528 14.018C15.3187 14.9228 14.6044 15.6377 13.6991 15.8711L13.609 15.8943V15.9873V22.9088V23.0018L13.6991 23.025C14.6044 23.2584 15.3187 23.9733 15.5528 24.8781L15.5761 24.968H15.669H20.5404H20.6824L20.6588 24.8281C20.6225 24.613 20.5997 24.395 20.5997 24.173C20.5997 22.0057 22.3624 20.243 24.5297 20.243C25.5367 20.243 26.4528 20.6266 27.1495 21.2519ZM25.8418 30.1L25.9997 30.1526L25.9997 29.9861L25.999 27.9868L25.999 27.817L25.839 27.8737C25.4275 28.0194 24.9881 28.103 24.529 28.103C24.0698 28.103 23.6305 28.02 23.2192 27.8737L23.059 27.8168V27.9868V29.9861V30.1526L23.2169 30.1L24.3533 29.7214C24.3534 29.7214 24.3534 29.7214 24.3535 29.7214C24.468 29.6836 24.5907 29.6836 24.7052 29.7214C24.7053 29.7214 24.7053 29.7214 24.7054 29.7214L25.8418 30.1ZM27.1097 27.548V27.668H27.2297H29.2547C29.6928 27.668 30.0497 27.312 30.0497 26.873V12.023C30.0497 11.5841 29.6928 11.228 29.2547 11.228H11.7047C11.2666 11.228 10.9097 11.5841 10.9097 12.023V26.873C10.9097 27.312 11.2666 27.668 11.7047 27.668H21.8297H21.9497V27.548V27.1835V27.1301L21.9099 27.0943C21.6031 26.8183 21.3398 26.4966 21.1316 26.1378L21.0969 26.078H21.0278H15.0797C14.7733 26.078 14.5247 25.83 14.5247 25.523C14.5247 24.7122 13.8655 24.053 13.0547 24.053C12.7483 24.053 12.4997 23.805 12.4997 23.498V15.398C12.4997 15.0911 12.7483 14.843 13.0547 14.843C13.8655 14.843 14.5247 14.1838 14.5247 13.373C14.5247 13.0661 14.7733 12.818 15.0797 12.818H25.8797C26.1861 12.818 26.4347 13.0661 26.4347 13.373C26.4347 14.1838 27.0939 14.843 27.9047 14.843C28.2111 14.843 28.4597 15.0911 28.4597 15.398V23.498C28.4597 23.5331 28.4511 23.564 28.4375 23.6125C28.435 23.6214 28.4323 23.6309 28.4295 23.6412L28.4233 23.664L28.4262 23.6876C28.4461 23.8487 28.4597 24.0102 28.4597 24.173C28.4597 25.3332 27.9518 26.3739 27.1495 27.0943L27.1097 27.13V27.1835V27.548ZM21.7097 24.173C21.7097 25.7284 22.9744 26.993 24.5297 26.993C26.085 26.993 27.3497 25.7284 27.3497 24.173C27.3497 22.6177 26.085 21.353 24.5297 21.353C22.9744 21.353 21.7097 22.6177 21.7097 24.173Z" fill="#3C3C3C" stroke="#E8FBFE" stroke-width="0.24"/>
<path d="M21.8281 16.6943H19.1281C18.7886 16.6943 18.5131 16.4194 18.5131 16.0793C18.5131 15.7392 18.7886 15.4643 19.1281 15.4643H21.8281C22.1676 15.4643 22.4431 15.7392 22.4431 16.0793C22.4431 16.4194 22.1676 16.6943 21.8281 16.6943Z" fill="#3C3C3C" stroke="#E8FBFE" stroke-width="0.12"/>
<path d="M17.7766 18.1596H23.1766C23.5161 18.1596 23.7916 18.4345 23.7916 18.7746C23.7916 19.1147 23.5161 19.3896 23.1766 19.3896H17.7766C17.4371 19.3896 17.1616 19.1147 17.1616 18.7746C17.1616 18.4345 17.4371 18.1596 17.7766 18.1596Z" fill="#3C3C3C" stroke="#E8FBFE" stroke-width="0.12"/>
</g>
<defs>
<clipPath id="clip0_1397_19368">
<rect width="21.6" height="21.6" fill="white" transform="translate(9.67969 9.99805)"/>
</clipPath>
</defs>
</svg>
