<svg width="42" height="42" viewBox="0 0 42 42" fill="none" xmlns="http://www.w3.org/2000/svg">
<rect x="0.921875" y="0.396484" width="40.8" height="40.8" rx="9.6" fill="#EEEEEE"/>
<g clip-path="url(#clip0_1397_19885)">
<path d="M33.2944 22.1575C33.2944 22.1574 33.2944 22.1573 33.2943 22.1572L28.763 10.7795C28.6669 10.5378 28.3928 10.4197 28.1511 10.5159C28.1509 10.516 28.1507 10.516 28.1506 10.5161L9.76769 17.836C9.69272 17.8684 9.6277 17.9201 9.57924 17.9859C9.42635 18.0653 9.32977 18.2225 9.32812 18.3948V30.6441C9.32812 30.9043 9.53907 31.1152 9.79925 31.1152H29.5866C29.8467 31.1152 30.0577 30.9043 30.0577 30.6441V23.9541L33.0314 22.7697C33.2731 22.6733 33.3908 22.3992 33.2944 22.1575ZM29.1154 30.173H10.2704V18.8659H29.1154V30.173ZM17.1889 17.926L25.0774 14.7827C25.7814 15.5227 26.757 15.9433 27.7784 15.9473L28.5652 17.926H17.1889ZM30.0577 22.9421V18.3948C30.0577 18.1346 29.8467 17.9237 29.5866 17.9237H29.579L28.5807 15.4163C28.5696 15.3954 28.5567 15.3755 28.5421 15.357C28.4915 15.1301 28.2814 14.9752 28.0497 14.9942C27.0994 15.0808 26.1697 14.6805 25.5796 13.9304C25.4328 13.7492 25.1748 13.7041 24.9752 13.8249C24.9528 13.8275 24.9306 13.8316 24.9087 13.8371L15.278 17.6721C15.1614 17.7178 15.0682 17.8084 15.0193 17.9237H12.0946L28.062 11.5658L32.2451 22.0696L30.0577 22.9421Z" fill="black"/>
<path d="M11.5473 26.9948C12.462 27.2651 13.1778 27.98 13.4493 28.8943C13.5088 29.0939 13.6924 29.2307 13.9006 29.2307C13.925 29.2292 13.9493 29.2255 13.9732 29.2199C13.9943 29.2259 14.0159 29.2303 14.0377 29.2331H25.3447C25.3642 29.2305 25.3834 29.2266 25.4022 29.2213C25.6376 29.2785 25.8748 29.1342 25.9321 28.8988C25.9323 28.8979 25.9325 28.8971 25.9327 28.8962C26.2035 27.9809 26.9193 27.2651 27.8346 26.9943C28.0566 26.9264 28.1945 26.7052 28.1578 26.476C28.1641 26.4532 28.1687 26.4299 28.1715 26.4063V22.6373C28.1687 22.6137 28.164 22.5904 28.1574 22.5676C28.1943 22.3383 28.0563 22.117 27.8342 22.0493C26.9189 21.7786 26.2032 21.0624 25.9332 20.1469C25.865 19.9234 25.6416 19.7852 25.4112 19.8237C25.3894 19.8177 25.3672 19.8133 25.3447 19.8105H14.0377C14.014 19.8134 13.9905 19.8181 13.9675 19.8247C13.7384 19.7882 13.5173 19.926 13.4493 20.1479C13.1783 21.063 12.4625 21.7786 11.5473 22.0493C11.3254 22.1172 11.1874 22.3384 11.2241 22.5676C11.218 22.5905 11.2136 22.6137 11.2109 22.6373V26.4063C11.2136 26.4285 11.2181 26.4504 11.2241 26.4718C11.1855 26.7025 11.3237 26.9261 11.5473 26.9948ZM12.1532 22.8286C13.0992 22.4486 13.849 21.6988 14.229 20.7528H25.153C25.5331 21.6988 26.2831 22.4486 27.2292 22.8286V26.215C26.2835 26.5954 25.5338 27.3451 25.1535 28.2908H14.229C13.8486 27.3451 13.0989 26.5954 12.1532 26.215V22.8286Z" fill="black"/>
<path d="M19.6939 27.3469C21.2551 27.3469 22.5207 26.0813 22.5207 24.5201C22.5207 22.9589 21.2551 21.6934 19.6939 21.6934C18.1328 21.6934 16.8672 22.9589 16.8672 24.5201C16.8687 26.0807 18.1334 27.3453 19.6939 27.3469ZM19.6939 22.6356C20.7347 22.6356 21.5785 23.4793 21.5785 24.5201C21.5785 25.5609 20.7347 26.4046 19.6939 26.4046C18.6532 26.4046 17.8094 25.5609 17.8094 24.5201C17.8094 23.4793 18.6532 22.6356 19.6939 22.6356Z" fill="black"/>
<path d="M14.5114 25.2239C14.9016 25.2239 15.2181 24.9075 15.2181 24.5172C15.2181 24.127 14.9016 23.8105 14.5114 23.8105C14.1211 23.8105 13.8047 24.127 13.8047 24.5172C13.8047 24.9076 14.1211 25.2239 14.5114 25.2239ZM14.5114 24.2817C14.6415 24.2817 14.7469 24.3871 14.7469 24.5172C14.7469 24.6473 14.6415 24.7528 14.5114 24.7528C14.3813 24.7528 14.2758 24.6473 14.2758 24.5172C14.2758 24.3871 14.3813 24.2817 14.5114 24.2817Z" fill="black"/>
<path d="M24.8747 25.2239C25.2649 25.2239 25.5813 24.9075 25.5813 24.5172C25.5813 24.127 25.2649 23.8105 24.8747 23.8105C24.4844 23.8105 24.168 24.127 24.168 24.5172C24.168 24.9076 24.4844 25.2239 24.8747 25.2239ZM24.8747 24.2817C25.0047 24.2817 25.1102 24.3871 25.1102 24.5172C25.1102 24.6473 25.0047 24.7528 24.8747 24.7528C24.7446 24.7528 24.6391 24.6473 24.6391 24.5172C24.6391 24.3871 24.7446 24.2817 24.8747 24.2817Z" fill="black"/>
</g>
<defs>
<clipPath id="clip0_1397_19885">
<rect width="24" height="24" fill="white" transform="translate(9.32031 8.79492)"/>
</clipPath>
</defs>
</svg>
