<svg width="41" height="42" viewBox="0 0 41 42" fill="none" xmlns="http://www.w3.org/2000/svg">
<rect x="0.078125" y="0.796875" width="40.8" height="40.8" rx="9.6" fill="#474FC5" fill-opacity="0.1"/>
<path d="M33.075 21.3313C32.9473 28.3396 27.1199 33.9939 19.9405 33.9939C12.7611 33.9939 6.93375 28.3396 6.80605 21.3313H33.075Z" stroke="#474FC5" stroke-width="0.6"/>
<path d="M19.9393 34.0032C18.2817 34.0032 16.7013 32.6626 15.5162 30.3134C14.3726 28.0467 13.6431 24.9193 13.599 21.4406H26.2851C26.241 24.9193 25.5115 28.0467 24.3672 30.3134C23.1815 32.6623 21.5997 34.0032 19.9393 34.0032Z" stroke="#474FC5" stroke-width="0.6"/>
<path d="M19.9402 34.722C27.5838 34.722 33.8021 28.6107 33.8021 21.0989C33.8021 15.2431 30.0735 10.1248 24.4791 8.22567L25.8242 7.70429C26.0433 7.61941 26.1521 7.37309 26.0671 7.15405C25.9821 6.93484 25.7345 6.82589 25.5169 6.91116L23.0745 7.85779C22.8522 7.9438 22.7443 8.19625 22.8347 8.41607L23.8144 10.8005C23.903 11.0159 24.1505 11.1223 24.3697 11.0321C24.5868 10.943 24.6906 10.6944 24.6015 10.4771L23.9763 8.95602C29.1931 10.6238 32.7371 15.2477 32.9415 20.6085H6.93881C7.14254 15.2654 10.664 10.6539 15.8518 8.97211L15.2683 10.3919C15.1792 10.6093 15.283 10.8578 15.5001 10.9469C15.7196 11.0372 15.9669 10.9304 16.0554 10.7153L17.0351 8.33086C17.1253 8.11126 17.0179 7.85869 16.7953 7.77257L14.3528 6.82589C14.1343 6.74072 13.8875 6.8494 13.8025 7.06877C13.7176 7.28781 13.8263 7.53413 14.0454 7.61901L15.5132 8.18792C9.87219 10.0515 6.09944 15.1764 6.07908 21.0513C6.07908 21.0517 6.07897 21.0522 6.07897 21.0527L6.07812 21.0989C6.07812 28.6107 12.2967 34.722 19.9402 34.722ZM32.9404 21.5249C32.7438 27.3483 28.5684 32.2511 22.8625 33.5424C25.2665 31.4899 26.9248 26.9531 27.0079 21.5249H32.9404ZM20.3675 21.5249H26.1561V21.5593H26.1588C26.0454 28.0942 23.5232 33.3948 20.3675 33.8377V21.5249ZM13.7254 21.5249H19.5169V33.8383C16.3624 33.3988 13.8405 28.0967 13.727 21.5593H13.7746H13.7254V21.5249ZM6.93982 21.5249H12.8779C12.9609 26.9537 14.6183 31.4909 17.021 33.5431C11.3579 32.2626 7.13563 27.3713 6.93982 21.5249Z" fill="#474FC5" stroke="#474FC5" stroke-width="0.24"/>
<path d="M19.8149 18.045V17.745H19.5149H18.3316C18.2624 17.745 18.2063 17.6889 18.2063 17.6197C18.2063 17.5504 18.2624 17.4943 18.3316 17.4943H20.9535C21.1897 17.4943 21.4232 17.3118 21.4232 17.0376V15.4328C21.4232 15.1586 21.1899 14.9759 20.9535 14.9759H18.9267C18.5261 14.9759 18.2063 14.6547 18.2063 14.2685V12.6638C18.2063 12.2775 18.526 11.9563 18.9267 11.9563H19.5149H19.8149V11.6563V10.9488C19.8149 10.8796 19.871 10.8234 19.9402 10.8234C20.0095 10.8234 20.0656 10.8796 20.0656 10.9488V11.6564V11.9564H20.3656H21.5486C21.6178 11.9564 21.674 12.0125 21.674 12.0817C21.674 12.151 21.6178 12.2071 21.5486 12.2071H18.9267C18.6905 12.2071 18.457 12.3896 18.457 12.6638V14.2686C18.457 14.5428 18.6905 14.7253 18.9267 14.7253H20.9535C21.3541 14.7253 21.674 15.0465 21.674 15.4328V17.0376C21.674 17.4238 21.3542 17.745 20.9535 17.745H20.3656H20.0656V18.045V18.7524C20.0656 18.8216 20.0095 18.8778 19.9402 18.8778C19.871 18.8778 19.8149 18.8216 19.8149 18.7524V18.045Z" fill="#474FC5" stroke="#474FC5" stroke-width="0.6"/>
</svg>
