<svg width="42" height="41" viewBox="0 0 42 41" fill="none" xmlns="http://www.w3.org/2000/svg">
<rect x="0.921875" y="0.195312" width="40.8" height="40.8" rx="9.6" fill="#EEEEEE"/>
<g clip-path="url(#clip0_1397_19906)">
<path d="M33.2944 21.9485C33.2944 21.9484 33.2944 21.9483 33.2943 21.9482L28.763 10.5705C28.6669 10.3288 28.3928 10.2108 28.1511 10.3069C28.1509 10.307 28.1507 10.307 28.1506 10.3072L9.76769 17.6271C9.69272 17.6594 9.6277 17.7111 9.57924 17.7769C9.42635 17.8563 9.32977 18.0136 9.32812 18.1858V30.4351C9.32812 30.6953 9.53907 30.9062 9.79925 30.9062H29.5866C29.8467 30.9062 30.0577 30.6953 30.0577 30.4351V23.7451L33.0314 22.5607C33.2731 22.4643 33.3908 22.1902 33.2944 21.9485ZM29.1154 29.964H10.2704V18.6569H29.1154V29.964ZM17.1889 17.717L25.0774 14.5737C25.7814 15.3137 26.757 15.7343 27.7784 15.7383L28.5652 17.717H17.1889ZM30.0577 22.7331V18.1858C30.0577 17.9256 29.8467 17.7147 29.5866 17.7147H29.579L28.5807 15.2073C28.5696 15.1864 28.5567 15.1665 28.5421 15.148C28.4915 14.9211 28.2814 14.7663 28.0497 14.7852C27.0994 14.8718 26.1697 14.4715 25.5796 13.7214C25.4328 13.5402 25.1748 13.4952 24.9752 13.6159C24.9528 13.6185 24.9306 13.6227 24.9087 13.6281L15.278 17.4631C15.1614 17.5088 15.0682 17.5994 15.0193 17.7147H12.0946L28.062 11.3568L32.2451 21.8606L30.0577 22.7331Z" fill="black"/>
<path d="M11.5473 26.7858C12.462 27.0561 13.1778 27.771 13.4493 28.6853C13.5088 28.8849 13.6924 29.0217 13.9006 29.0217C13.925 29.0202 13.9493 29.0166 13.9732 29.0109C13.9943 29.0169 14.0159 29.0213 14.0377 29.0241H25.3447C25.3642 29.0216 25.3834 29.0176 25.4022 29.0123C25.6376 29.0696 25.8748 28.9252 25.9321 28.6898C25.9323 28.6889 25.9325 28.6881 25.9327 28.6872C26.2035 27.772 26.9193 27.0561 27.8346 26.7853C28.0566 26.7175 28.1945 26.4963 28.1578 26.2671C28.1641 26.2442 28.1687 26.2209 28.1715 26.1973V22.4283C28.1687 22.4047 28.164 22.3814 28.1574 22.3586C28.1943 22.1293 28.0563 21.908 27.8342 21.8404C26.9189 21.5696 26.2032 20.8535 25.9332 19.9379C25.865 19.7145 25.6416 19.5762 25.4112 19.6148C25.3894 19.6087 25.3672 19.6043 25.3447 19.6016H14.0377C14.014 19.6044 13.9905 19.6091 13.9675 19.6157C13.7384 19.5792 13.5173 19.717 13.4493 19.9389C13.1783 20.854 12.4625 21.5696 11.5473 21.8404C11.3254 21.9082 11.1874 22.1294 11.2241 22.3586C11.218 22.3815 11.2136 22.4048 11.2109 22.4283V26.1973C11.2136 26.2195 11.2181 26.2414 11.2241 26.2628C11.1855 26.4935 11.3237 26.7172 11.5473 26.7858ZM12.1532 22.6196C13.0992 22.2396 13.849 21.4898 14.229 20.5438H25.153C25.5331 21.4898 26.2831 22.2396 27.2292 22.6196V26.0061C26.2835 26.3864 25.5338 27.1361 25.1535 28.0818H14.229C13.8486 27.1361 13.0989 26.3864 12.1532 26.0061V22.6196Z" fill="black"/>
<path d="M19.6939 27.1379C21.2551 27.1379 22.5207 25.8723 22.5207 24.3111C22.5207 22.7499 21.2551 21.4844 19.6939 21.4844C18.1328 21.4844 16.8672 22.7499 16.8672 24.3111C16.8687 25.8717 18.1334 27.1364 19.6939 27.1379ZM19.6939 22.4266C20.7347 22.4266 21.5785 23.2704 21.5785 24.3111C21.5785 25.3519 20.7347 26.1956 19.6939 26.1956C18.6532 26.1956 17.8094 25.3519 17.8094 24.3111C17.8094 23.2704 18.6532 22.4266 19.6939 22.4266Z" fill="black"/>
<path d="M14.5114 25.0149C14.9016 25.0149 15.2181 24.6985 15.2181 24.3083C15.2181 23.918 14.9016 23.6016 14.5114 23.6016C14.1211 23.6016 13.8047 23.918 13.8047 24.3083C13.8047 24.6986 14.1211 25.0149 14.5114 25.0149ZM14.5114 24.0727C14.6415 24.0727 14.7469 24.1782 14.7469 24.3083C14.7469 24.4383 14.6415 24.5438 14.5114 24.5438C14.3813 24.5438 14.2758 24.4383 14.2758 24.3083C14.2758 24.1782 14.3813 24.0727 14.5114 24.0727Z" fill="black"/>
<path d="M24.8747 25.0149C25.2649 25.0149 25.5813 24.6985 25.5813 24.3083C25.5813 23.918 25.2649 23.6016 24.8747 23.6016C24.4844 23.6016 24.168 23.918 24.168 24.3083C24.168 24.6986 24.4844 25.0149 24.8747 25.0149ZM24.8747 24.0727C25.0047 24.0727 25.1102 24.1782 25.1102 24.3083C25.1102 24.4383 25.0047 24.5438 24.8747 24.5438C24.7446 24.5438 24.6391 24.4383 24.6391 24.3083C24.6391 24.1782 24.7446 24.0727 24.8747 24.0727Z" fill="black"/>
</g>
<defs>
<clipPath id="clip0_1397_19906">
<rect width="24" height="24" fill="white" transform="translate(9.32031 8.59375)"/>
</clipPath>
</defs>
</svg>
