<svg width="51" height="51" viewBox="0 0 51 51" fill="none" xmlns="http://www.w3.org/2000/svg">
<rect x="0.078125" y="0.199219" width="50" height="50" rx="10" fill="#7D75EE"/>
<g clip-path="url(#clip0_1397_17210)">
<path d="M32.3907 38.4137L32.2261 38.3589L30.845 37.8988L32.3907 38.4137ZM32.3907 38.4137L32.3906 38.2403M32.3907 38.4137L32.3906 38.2403M32.3906 38.2403L32.3898 35.8105L32.3897 35.6337L32.2231 35.6927C31.721 35.8705 31.1847 35.9727 30.6242 35.9727C30.0636 35.9727 29.5273 35.8713 29.0254 35.6928L28.8586 35.6334V35.8105V38.2403V38.4137M32.3906 38.2403L28.8586 38.4137M28.8586 38.4137L29.0231 38.3589M28.8586 38.4137L29.0231 38.3589M29.0231 38.3589L30.4041 37.8988M29.0231 38.3589L30.4041 37.8988M30.4041 37.8988L30.4045 37.8987C30.5478 37.8515 30.7014 37.8515 30.8447 37.8987L30.4041 37.8988ZM27.4688 36.918V36.793H27.3438H15.0391C13.7513 36.793 12.7031 35.7448 12.7031 34.457V16.4102C12.7031 15.1224 13.7513 14.0742 15.0391 14.0742H36.3672C37.655 14.0742 38.7039 15.1224 38.7039 16.4102V34.4578C38.7039 35.7456 37.6558 36.7938 36.368 36.7938H33.9071H33.7821V36.9188V39.3797C33.7821 39.6036 33.6743 39.8136 33.4928 39.9444L33.4927 39.9444C33.3734 40.0305 33.2309 40.075 33.0868 40.075C33.0133 40.075 32.9398 40.0633 32.8674 40.0389L32.8671 40.0388L30.6654 39.3046L30.6258 39.2914L30.5863 39.3046L28.3846 40.0388L28.3841 40.039C28.1725 40.1104 27.939 40.0744 27.7582 39.9437L27.7581 39.9436C27.5758 39.8121 27.4688 39.6021 27.4688 39.3789V36.918ZM33.8228 27.6102L34.0312 27.7973V27.5172V21.2279V21.131L33.9375 21.1068C32.8298 20.8212 31.9561 19.9467 31.6697 18.8398L31.6454 18.7461H31.5487H19.8568H19.76L19.7357 18.8398C19.4493 19.9467 18.5756 20.8212 17.468 21.1068L17.3742 21.131V21.2279V29.6393V29.7362L17.468 29.7604C18.5756 30.046 19.4493 30.9204 19.7357 32.0274L19.76 32.1211H19.8568H25.777H25.9248L25.9002 31.9753C25.856 31.713 25.8281 31.447 25.8281 31.1758C25.8281 28.5304 27.9796 26.3789 30.625 26.3789C31.8542 26.3789 32.9724 26.8471 33.8228 27.6102ZM33.7812 35.2773V35.4023H33.9062H36.3672C36.8881 35.4023 37.3125 34.979 37.3125 34.457V16.4102C37.3125 15.8882 36.8881 15.4648 36.3672 15.4648H15.0391C14.5181 15.4648 14.0938 15.8882 14.0938 16.4102V34.457C14.0938 34.979 14.5181 35.4023 15.0391 35.4023H27.3438H27.4688V35.2773V34.8344V34.7787L27.4273 34.7414C27.0529 34.4046 26.7315 34.012 26.4773 33.574L26.4412 33.5117H26.3692H19.1406C18.7568 33.5117 18.4453 33.2009 18.4453 32.8164C18.4453 31.8426 17.6535 31.0508 16.6797 31.0508C16.2958 31.0508 15.9844 30.74 15.9844 30.3555V20.5117C15.9844 20.1272 16.2958 19.8164 16.6797 19.8164C17.6535 19.8164 18.4453 19.0246 18.4453 18.0508C18.4453 17.6663 18.7568 17.3555 19.1406 17.3555H32.2656C32.6495 17.3555 32.9609 17.6663 32.9609 18.0508C32.9609 19.0246 33.7527 19.8164 34.7266 19.8164C35.1104 19.8164 35.4219 20.1272 35.4219 20.5117V30.3555C35.4219 30.4012 35.4105 30.4417 35.394 30.5006C35.391 30.5114 35.3878 30.5228 35.3845 30.5349L35.378 30.5587L35.381 30.5832C35.4052 30.7796 35.4219 30.9767 35.4219 31.1758C35.4219 32.592 34.8019 33.8622 33.8227 34.7414L33.7812 34.7786V34.8344V35.2773ZM28.4241 40.1574L30.6258 39.4232L28.4241 40.1574ZM27.2188 31.1758C27.2188 33.0544 28.7464 34.582 30.625 34.582C32.5036 34.582 34.0312 33.0544 34.0312 31.1758C34.0312 29.2971 32.5036 27.7695 30.625 27.7695C28.7464 27.7695 27.2188 29.2971 27.2188 31.1758Z" fill="white" stroke="#7D75EE" stroke-width="0.25"/>
<path d="M27.3516 22.0898H24.0703C23.652 22.0898 23.3125 21.7511 23.3125 21.332C23.3125 20.913 23.652 20.5742 24.0703 20.5742H27.3516C27.7699 20.5742 28.1094 20.913 28.1094 21.332C28.1094 21.7511 27.7699 22.0898 27.3516 22.0898Z" fill="white" stroke="#7D75EE" stroke-width="0.125"/>
<path d="M22.4297 23.8555H28.9922C29.4105 23.8555 29.75 24.1942 29.75 24.6133C29.75 25.0324 29.4105 25.3711 28.9922 25.3711H22.4297C22.0114 25.3711 21.6719 25.0324 21.6719 24.6133C21.6719 24.1942 22.0114 23.8555 22.4297 23.8555Z" fill="white" stroke="#7D75EE" stroke-width="0.125"/>
</g>
<defs>
<clipPath id="clip0_1397_17210">
<rect width="26.25" height="26.25" fill="white" transform="translate(12.5781 13.9492)"/>
</clipPath>
</defs>
</svg>
