<svg width="44" height="44" viewBox="0 0 44 44" fill="none" xmlns="http://www.w3.org/2000/svg">
<path d="M21.9987 40.3385C21.9987 40.3385 36.6654 33.0052 36.6654 22.0052V9.17188L21.9987 3.67188L7.33203 9.17188V22.0052C7.33203 33.0052 21.9987 40.3385 21.9987 40.3385Z" stroke="#4F9384" stroke-width="1.8" stroke-linecap="round" stroke-linejoin="round"/>
<path d="M21.3636 27.6364C21.7151 27.9879 22.2849 27.9879 22.6364 27.6364L28.364 21.9088C28.7154 21.5574 28.7154 20.9875 28.364 20.636C28.0125 20.2846 27.4426 20.2846 27.0912 20.636L22 25.7272L16.9088 20.636C16.5574 20.2846 15.9875 20.2846 15.636 20.636C15.2846 20.9875 15.2846 21.5574 15.636 21.9088L21.3636 27.6364ZM21.1 14L21.1 27L22.9 27L22.9 14L21.1 14Z" fill="#4F9384"/>
</svg>
