<svg width="46" height="46" viewBox="0 0 46 46" fill="none" xmlns="http://www.w3.org/2000/svg">
<path d="M38.2779 19.2111L38.2784 19.211C38.9388 19.05 39.6065 19.4575 39.766 20.1203L39.7661 20.1204C40.1092 21.5424 40.2913 23.027 40.2913 24.5537C40.2913 34.9538 31.8478 43.3992 21.4457 43.3992C11.0456 43.3992 2.60021 34.9538 2.60021 24.5537C2.60021 14.1516 11.0456 5.70812 21.4457 5.70812C22.9724 5.70812 24.457 5.89017 25.879 6.23334L25.8791 6.23337C26.5419 6.3929 26.9494 7.06061 26.7884 7.72104L26.7883 7.7215C26.6289 8.3823 25.963 8.79024 25.3002 8.63083C24.0636 8.33186 22.7729 8.17469 21.4457 8.17469C12.4051 8.17469 5.06678 15.513 5.06678 24.5537C5.06678 33.5943 12.4051 40.9326 21.4457 40.9326C30.4864 40.9326 37.8247 33.5943 37.8247 24.5537C37.8247 23.2266 37.6676 21.9359 37.3686 20.6994C37.2091 20.0365 37.617 19.3706 38.2779 19.2111Z" fill="#4886FF" stroke="#F6F6FA" stroke-width="0.408433"/>
<path d="M28.5027 24.5513C28.5027 23.8706 29.0552 23.318 29.7359 23.318C30.4149 23.318 30.9692 23.8708 30.9692 24.5513C30.9692 29.8052 26.7022 34.0723 21.4464 34.0723C16.1925 34.0723 11.9254 29.8052 11.9254 24.5513C11.9254 19.2955 16.1925 15.0284 21.4464 15.0284C22.1269 15.0284 22.6796 15.5827 22.6796 16.2617C22.6796 16.9424 22.1271 17.495 21.4464 17.495C17.5519 17.495 14.392 20.657 14.392 24.5513C14.392 28.4457 17.552 31.6057 21.4464 31.6057C25.3407 31.6057 28.5027 28.4457 28.5027 24.5513Z" fill="#4886FF" stroke="#F6F6FA" stroke-width="0.408433"/>
<path d="M43.0396 10.5669L43.0395 10.5669L37.1803 16.4281C37.1803 16.4281 37.1803 16.4281 37.1803 16.4281C36.9484 16.66 36.6342 16.7899 36.307 16.7899H30.4458C29.7651 16.7899 29.2125 16.2373 29.2125 15.5566V9.69547C29.2125 9.3682 29.3424 9.05408 29.5743 8.82214C29.5744 8.82213 29.5744 8.82213 29.5744 8.82212L35.4355 2.96289L35.4355 2.96287C35.7384 2.66003 36.1758 2.53527 36.5914 2.63384C37.0078 2.73258 37.3431 3.0385 37.4778 3.44439L37.4779 3.44466L38.7161 7.15724L38.7484 7.25407L38.8452 7.28636L42.5578 8.52453L42.558 8.52461C42.9639 8.65936 43.2698 8.99462 43.3686 9.41101C43.4672 9.82662 43.3424 10.2641 43.0396 10.5669ZM39.6522 10.4685L39.8858 10.235L39.5724 10.1304L37.3838 9.40023C37.0153 9.27685 36.7257 8.9873 36.6023 8.61884C36.6022 8.61877 36.6022 8.6187 36.6022 8.61863L35.872 6.43L35.7675 6.11665L35.5339 6.35023L31.7389 10.1452L31.6791 10.205V10.2896V14.1191V14.3233H31.8833H35.7128H35.7974L35.8572 14.2635L39.6522 10.4685Z" fill="#4886FF" stroke="#F6F6FA" stroke-width="0.408433"/>
<path d="M22.5272 25.2213L22.5272 25.2213C22.0452 25.7033 21.2643 25.7029 20.7846 25.2215L20.7841 25.221C20.3027 24.7413 20.3024 23.9604 20.7843 23.4784L20.7844 23.4784L29.5742 14.6867C29.5742 14.6867 29.5742 14.6867 29.5742 14.6867C30.056 14.2049 30.8371 14.2049 31.319 14.6867C31.8008 15.1685 31.8008 15.9496 31.319 16.4314C31.319 16.4315 31.319 16.4315 31.319 16.4315L22.5272 25.2213Z" fill="#4886FF" stroke="#F6F6FA" stroke-width="0.408433"/>
</svg>
