<svg width="46" height="46" viewBox="0 0 46 46" fill="none" xmlns="http://www.w3.org/2000/svg">
<mask id="path-1-inside-1_1143_1579" fill="white">
<path fill-rule="evenodd" clip-rule="evenodd" d="M17.2487 2.39648C12.3153 2.39648 8.48788 3.37437 5.93015 5.9321C3.37241 8.48984 2.39453 12.3172 2.39453 17.2507V28.7507C2.39453 33.6842 3.37241 37.5115 5.93015 40.0691C8.48788 42.6269 12.3153 43.6048 17.2487 43.6048H28.7487C33.6822 43.6048 37.5096 42.6269 40.0672 40.0691C42.625 37.5115 43.6029 33.6842 43.6029 28.7507V17.2507C43.6029 12.3172 42.625 8.48984 40.0672 5.9321C37.5096 3.37437 33.6822 2.39648 28.7487 2.39648H17.2487ZM5.26953 17.2507C5.26953 12.6008 6.20832 9.7198 7.96308 7.96503C9.71785 6.21027 12.5988 5.27148 17.2487 5.27148H28.7487C33.3985 5.27148 36.2795 6.21027 38.0344 7.96503C39.7891 9.7198 40.7279 12.6008 40.7279 17.2507V28.7507C40.7279 33.4005 39.7891 36.2814 38.0344 38.0363C36.2795 39.791 33.3985 40.7298 28.7487 40.7298H17.2487C12.5988 40.7298 9.71785 39.791 7.96308 38.0363C6.20832 36.2814 5.26953 33.4005 5.26953 28.7507V17.2507ZM12.8344 22.4331C19.2637 20.8299 25.0885 17.4327 29.6292 12.6536H27.1933C26.3994 12.6536 25.7558 12.01 25.7558 11.2161C25.7558 10.4222 26.3994 9.77864 27.1933 9.77864H32.8091L32.812 9.77864C32.8254 9.77867 32.8389 9.77888 32.8524 9.77928C33.6264 9.80214 34.2466 10.4367 34.2466 11.2161V16.8128C34.2466 17.6067 33.6032 18.2503 32.8091 18.2503C32.0153 18.2503 31.3716 17.6067 31.3716 16.8128V14.9889C26.5051 19.9782 20.3286 23.5275 13.5299 25.2226C12.7596 25.4146 11.9794 24.946 11.7873 24.1757C11.5953 23.4054 12.064 22.6251 12.8344 22.4331ZM32.8159 21.4284C33.6098 21.4284 34.2534 22.072 34.2534 22.8659V34.7876C34.2534 35.5814 33.6098 36.2251 32.8159 36.2251C32.0221 36.2251 31.3784 35.5814 31.3784 34.7876V22.8659C31.3784 22.072 32.0221 21.4284 32.8159 21.4284ZM24.4345 26.8564C24.4345 26.0626 23.7909 25.4189 22.997 25.4189C22.2031 25.4189 21.5595 26.0626 21.5595 26.8564V34.7914C21.5595 35.5853 22.2031 36.2289 22.997 36.2289C23.7909 36.2289 24.4345 35.5853 24.4345 34.7914V26.8564ZM14.6193 30.817C14.6193 30.0232 13.9757 29.3796 13.1818 29.3796C12.3879 29.3796 11.7443 30.0232 11.7443 30.817V34.7846C11.7443 35.5784 12.3879 36.2221 13.1818 36.2221C13.9757 36.2221 14.6193 35.5784 14.6193 34.7846V30.817Z"/>
</mask>
<path fill-rule="evenodd" clip-rule="evenodd" d="M17.2487 2.39648C12.3153 2.39648 8.48788 3.37437 5.93015 5.9321C3.37241 8.48984 2.39453 12.3172 2.39453 17.2507V28.7507C2.39453 33.6842 3.37241 37.5115 5.93015 40.0691C8.48788 42.6269 12.3153 43.6048 17.2487 43.6048H28.7487C33.6822 43.6048 37.5096 42.6269 40.0672 40.0691C42.625 37.5115 43.6029 33.6842 43.6029 28.7507V17.2507C43.6029 12.3172 42.625 8.48984 40.0672 5.9321C37.5096 3.37437 33.6822 2.39648 28.7487 2.39648H17.2487ZM5.26953 17.2507C5.26953 12.6008 6.20832 9.7198 7.96308 7.96503C9.71785 6.21027 12.5988 5.27148 17.2487 5.27148H28.7487C33.3985 5.27148 36.2795 6.21027 38.0344 7.96503C39.7891 9.7198 40.7279 12.6008 40.7279 17.2507V28.7507C40.7279 33.4005 39.7891 36.2814 38.0344 38.0363C36.2795 39.791 33.3985 40.7298 28.7487 40.7298H17.2487C12.5988 40.7298 9.71785 39.791 7.96308 38.0363C6.20832 36.2814 5.26953 33.4005 5.26953 28.7507V17.2507ZM12.8344 22.4331C19.2637 20.8299 25.0885 17.4327 29.6292 12.6536H27.1933C26.3994 12.6536 25.7558 12.01 25.7558 11.2161C25.7558 10.4222 26.3994 9.77864 27.1933 9.77864H32.8091L32.812 9.77864C32.8254 9.77867 32.8389 9.77888 32.8524 9.77928C33.6264 9.80214 34.2466 10.4367 34.2466 11.2161V16.8128C34.2466 17.6067 33.6032 18.2503 32.8091 18.2503C32.0153 18.2503 31.3716 17.6067 31.3716 16.8128V14.9889C26.5051 19.9782 20.3286 23.5275 13.5299 25.2226C12.7596 25.4146 11.9794 24.946 11.7873 24.1757C11.5953 23.4054 12.064 22.6251 12.8344 22.4331ZM32.8159 21.4284C33.6098 21.4284 34.2534 22.072 34.2534 22.8659V34.7876C34.2534 35.5814 33.6098 36.2251 32.8159 36.2251C32.0221 36.2251 31.3784 35.5814 31.3784 34.7876V22.8659C31.3784 22.072 32.0221 21.4284 32.8159 21.4284ZM24.4345 26.8564C24.4345 26.0626 23.7909 25.4189 22.997 25.4189C22.2031 25.4189 21.5595 26.0626 21.5595 26.8564V34.7914C21.5595 35.5853 22.2031 36.2289 22.997 36.2289C23.7909 36.2289 24.4345 35.5853 24.4345 34.7914V26.8564ZM14.6193 30.817C14.6193 30.0232 13.9757 29.3796 13.1818 29.3796C12.3879 29.3796 11.7443 30.0232 11.7443 30.817V34.7846C11.7443 35.5784 12.3879 36.2221 13.1818 36.2221C13.9757 36.2221 14.6193 35.5784 14.6193 34.7846V30.817Z" fill="#6C689F"/>
<path d="M5.93015 5.9321L5.65837 5.66033L5.93015 5.9321ZM5.93015 40.0691L6.20193 39.7974L6.20192 39.7974L5.93015 40.0691ZM40.0672 40.0691L39.7954 39.7974L39.7954 39.7974L40.0672 40.0691ZM40.0672 5.9321L39.7954 6.20387L39.7954 6.20388L40.0672 5.9321ZM7.96308 7.96503L7.6913 7.69326L7.96308 7.96503ZM38.0344 7.96503L38.3062 7.69326L38.3061 7.69325L38.0344 7.96503ZM38.0344 38.0363L38.3061 38.3081L38.3062 38.3081L38.0344 38.0363ZM7.96308 38.0363L7.69129 38.3081L7.69131 38.3081L7.96308 38.0363ZM29.6292 12.6536L29.9079 12.9184L30.5246 12.2693H29.6292V12.6536ZM12.8344 22.4331L12.9273 22.806L12.9273 22.806L12.8344 22.4331ZM32.8091 9.77864L32.8095 9.39429H32.8091V9.77864ZM32.812 9.77864L32.8126 9.39429H32.8123L32.812 9.77864ZM32.8524 9.77928L32.841 10.1635L32.841 10.1635L32.8524 9.77928ZM31.3716 14.9889H31.756V14.0445L31.0965 14.7206L31.3716 14.9889ZM13.5299 25.2226L13.6229 25.5955H13.6229L13.5299 25.2226ZM11.7873 24.1757L11.4144 24.2687L11.7873 24.1757ZM6.20193 6.20388C8.65225 3.75356 12.353 2.78083 17.2487 2.78083V2.01213C12.2775 2.01213 8.32352 2.99518 5.65837 5.66033L6.20193 6.20388ZM2.77888 17.2507C2.77888 12.355 3.7516 8.6542 6.20193 6.20388L5.65837 5.66033C2.99323 8.32547 2.01018 12.2795 2.01018 17.2507H2.77888ZM2.77888 28.7507V17.2507H2.01018V28.7507H2.77888ZM6.20192 39.7974C3.7516 37.3472 2.77888 33.6464 2.77888 28.7507H2.01018C2.01018 33.7219 2.99322 37.6759 5.65838 40.3409L6.20192 39.7974ZM17.2487 43.2205C12.353 43.2205 8.65225 42.2477 6.20193 39.7974L5.65837 40.3409C8.32352 43.0061 12.2775 43.9892 17.2487 43.9892V43.2205ZM28.7487 43.2205H17.2487V43.9892H28.7487V43.2205ZM39.7954 39.7974C37.3452 42.2477 33.6445 43.2205 28.7487 43.2205V43.9892C33.7199 43.9892 37.674 43.0061 40.339 40.3409L39.7954 39.7974ZM43.2185 28.7507C43.2185 33.6464 42.2458 37.3472 39.7954 39.7974L40.339 40.3409C43.0042 37.6759 43.9872 33.7219 43.9872 28.7507H43.2185ZM43.2185 17.2507V28.7507H43.9872V17.2507H43.2185ZM39.7954 6.20388C42.2458 8.6542 43.2185 12.355 43.2185 17.2507H43.9872C43.9872 12.2795 43.0042 8.32547 40.339 5.66032L39.7954 6.20388ZM28.7487 2.78083C33.6445 2.78083 37.3452 3.75356 39.7954 6.20387L40.339 5.66033C37.674 2.99518 33.7199 2.01213 28.7487 2.01213V2.78083ZM17.2487 2.78083H28.7487V2.01213H17.2487V2.78083ZM7.6913 7.69326C5.82927 9.55529 4.88518 12.5627 4.88518 17.2507H5.65388C5.65388 12.6389 6.58736 9.88431 8.23486 8.23681L7.6913 7.69326ZM17.2487 4.88713C12.5607 4.88713 9.55333 5.83123 7.6913 7.69326L8.23486 8.23681C9.88236 6.58931 12.6369 5.65583 17.2487 5.65583V4.88713ZM28.7487 4.88713H17.2487V5.65583H28.7487V4.88713ZM38.3061 7.69325C36.444 5.83123 33.4366 4.88713 28.7487 4.88713V5.65583C33.3604 5.65583 36.115 6.58931 37.7626 8.23682L38.3061 7.69325ZM41.1122 17.2507C41.1122 12.5627 40.1681 9.55529 38.3062 7.69326L37.7626 8.23681C39.41 9.88431 40.3435 12.6389 40.3435 17.2507H41.1122ZM41.1122 28.7507V17.2507H40.3435V28.7507H41.1122ZM38.3062 38.3081C40.1681 36.4459 41.1122 33.4386 41.1122 28.7507H40.3435C40.3435 33.3624 39.41 36.1169 37.7626 37.7646L38.3062 38.3081ZM28.7487 41.1142C33.4366 41.1142 36.444 40.1701 38.3061 38.3081L37.7626 37.7645C36.115 39.412 33.3604 40.3455 28.7487 40.3455V41.1142ZM17.2487 41.1142H28.7487V40.3455H17.2487V41.1142ZM7.69131 38.3081C9.55334 40.1701 12.5607 41.1142 17.2487 41.1142V40.3455C12.6369 40.3455 9.88236 39.412 8.23485 37.7645L7.69131 38.3081ZM4.88518 28.7507C4.88518 33.4386 5.82928 36.4459 7.69129 38.3081L8.23487 37.7646C6.58735 36.1169 5.65388 33.3624 5.65388 28.7507H4.88518ZM4.88518 17.2507V28.7507H5.65388V17.2507H4.88518ZM29.3506 12.3889C24.8603 17.1149 19.0999 20.4746 12.7414 22.0601L12.9273 22.806C19.4275 21.1852 25.3167 17.7505 29.9079 12.9184L29.3506 12.3889ZM27.1933 13.038H29.6292V12.2693H27.1933V13.038ZM25.3715 11.2161C25.3715 12.2223 26.1872 13.038 27.1933 13.038V12.2693C26.6117 12.2693 26.1402 11.7978 26.1402 11.2161H25.3715ZM27.1933 9.39429C26.1872 9.39429 25.3715 10.2099 25.3715 11.2161H26.1402C26.1402 10.6345 26.6117 10.163 27.1933 10.163V9.39429ZM32.8091 9.39429H27.1933V10.163H32.8091V9.39429ZM32.8123 9.39429L32.8095 9.39429L32.8088 10.163L32.8116 10.163L32.8123 9.39429ZM32.8638 9.3951C32.8467 9.39459 32.8297 9.39432 32.8126 9.39429L32.8113 10.163C32.8212 10.163 32.8311 10.1632 32.841 10.1635L32.8638 9.3951ZM34.631 11.2161C34.631 10.2282 33.845 9.42407 32.8637 9.39509L32.841 10.1635C33.4079 10.1802 33.8623 10.6451 33.8623 11.2161H34.631ZM34.631 16.8128V11.2161H33.8623V16.8128H34.631ZM32.8091 18.6347C33.8155 18.6347 34.631 17.8189 34.631 16.8128H33.8623C33.8623 17.3945 33.3909 17.866 32.8091 17.866V18.6347ZM30.9873 16.8128C30.9873 17.819 31.803 18.6347 32.8091 18.6347V17.866C32.2275 17.866 31.756 17.3944 31.756 16.8128H30.9873ZM30.9873 14.9889V16.8128H31.756V14.9889H30.9873ZM13.6229 25.5955C20.4907 23.8832 26.7304 20.2977 31.6468 15.2573L31.0965 14.7206C26.2798 19.6587 20.1664 23.1718 13.4369 24.8496L13.6229 25.5955ZM11.4144 24.2687C11.6578 25.245 12.6467 25.8389 13.6229 25.5955L13.4369 24.8496C12.8725 24.9904 12.301 24.647 12.1603 24.0827L11.4144 24.2687ZM12.7414 22.0601C11.7651 22.3035 11.171 23.2924 11.4144 24.2687L12.1603 24.0827C12.0196 23.5183 12.363 22.9467 12.9273 22.806L12.7414 22.0601ZM34.6378 22.8659C34.6378 21.8597 33.8221 21.044 32.8159 21.044V21.8127C33.3975 21.8127 33.8691 22.2843 33.8691 22.8659H34.6378ZM34.6378 34.7876V22.8659H33.8691V34.7876H34.6378ZM32.8159 36.6094C33.8221 36.6094 34.6378 35.7937 34.6378 34.7876H33.8691C33.8691 35.3692 33.3975 35.8407 32.8159 35.8407V36.6094ZM30.9941 34.7876C30.9941 35.7937 31.8098 36.6094 32.8159 36.6094V35.8407C32.2343 35.8407 31.7628 35.3692 31.7628 34.7876H30.9941ZM30.9941 22.8659V34.7876H31.7628V22.8659H30.9941ZM32.8159 21.044C31.8098 21.044 30.9941 21.8597 30.9941 22.8659H31.7628C31.7628 22.2843 32.2343 21.8127 32.8159 21.8127V21.044ZM22.997 25.8033C23.5786 25.8033 24.0501 26.2748 24.0501 26.8564H24.8188C24.8188 25.8503 24.0031 25.0346 22.997 25.0346V25.8033ZM21.9438 26.8564C21.9438 26.2748 22.4154 25.8033 22.997 25.8033V25.0346C21.9908 25.0346 21.1751 25.8503 21.1751 26.8564H21.9438ZM21.9438 34.7914V26.8564H21.1751V34.7914H21.9438ZM22.997 35.8446C22.4154 35.8446 21.9438 35.3731 21.9438 34.7914H21.1751C21.1751 35.7976 21.9908 36.6133 22.997 36.6133V35.8446ZM24.0501 34.7914C24.0501 35.3731 23.5786 35.8446 22.997 35.8446V36.6133C24.0031 36.6133 24.8188 35.7976 24.8188 34.7914H24.0501ZM24.0501 26.8564V34.7914H24.8188V26.8564H24.0501ZM13.1818 29.7639C13.7634 29.7639 14.2349 30.2354 14.2349 30.817H15.0036C15.0036 29.8109 14.188 28.9952 13.1818 28.9952V29.7639ZM12.1286 30.817C12.1286 30.2354 12.6002 29.7639 13.1818 29.7639V28.9952C12.1756 28.9952 11.3599 29.8109 11.3599 30.817H12.1286ZM12.1286 34.7846V30.817H11.3599V34.7846H12.1286ZM13.1818 35.8377C12.6002 35.8377 12.1286 35.3662 12.1286 34.7846H11.3599C11.3599 35.7907 12.1756 36.6064 13.1818 36.6064V35.8377ZM14.2349 34.7846C14.2349 35.3662 13.7634 35.8377 13.1818 35.8377V36.6064C14.188 36.6064 15.0036 35.7907 15.0036 34.7846H14.2349ZM14.2349 30.817V34.7846H15.0036V30.817H14.2349Z" fill="#F6F6FA" mask="url(#path-1-inside-1_1143_1579)"/>
</svg>
