<svg width="55" height="55" viewBox="0 0 55 55" fill="none" xmlns="http://www.w3.org/2000/svg">
<path fill-rule="evenodd" clip-rule="evenodd" d="M0 27.2727C0 12.2104 12.2104 0 27.2727 0C42.335 0 54.5455 12.2104 54.5455 27.2727C54.5455 42.335 42.335 54.5455 27.2727 54.5455C12.2104 54.5455 0 42.335 0 27.2727Z" fill="#F1EFFF"/>
<path fill-rule="evenodd" clip-rule="evenodd" d="M27.2695 12.7344C23.3191 12.7344 22.8234 12.7516 21.2718 12.8223C19.7233 12.8932 18.6664 13.1383 17.7415 13.498C16.7848 13.8695 15.9733 14.3665 15.1648 15.1753C14.3557 15.9838 13.8587 16.7953 13.486 17.7517C13.1254 18.6769 12.8799 19.7341 12.8102 21.282C12.7408 22.8336 12.7227 23.3296 12.7227 27.28C12.7227 31.2303 12.7402 31.7246 12.8105 33.2761C12.8817 34.8246 13.1269 35.8816 13.4863 36.8064C13.8581 37.7631 14.3551 38.5746 15.1639 39.3831C15.9721 40.1922 16.7836 40.6904 17.7397 41.0619C18.6651 41.4216 19.7224 41.6668 21.2706 41.7377C22.8222 41.8083 23.3176 41.8256 27.2677 41.8256C31.2183 41.8256 31.7126 41.8083 33.2641 41.7377C34.8126 41.6668 35.8708 41.4216 36.7962 41.0619C37.7526 40.6904 38.5629 40.1922 39.3711 39.3831C40.1802 38.5746 40.6772 37.7631 41.0499 36.8067C41.4075 35.8816 41.653 34.8243 41.7257 33.2764C41.7954 31.7249 41.8136 31.2303 41.8136 27.28C41.8136 23.3296 41.7954 22.8339 41.7257 21.2823C41.653 19.7338 41.4075 18.6769 41.0499 17.752C40.6772 16.7953 40.1802 15.9838 39.3711 15.1753C38.562 14.3662 37.7529 13.8692 36.7953 13.498C35.8681 13.1383 34.8105 12.8932 33.262 12.8223C31.7104 12.7516 31.2165 12.7344 27.2649 12.7344H27.2695ZM25.9645 15.3556C26.3518 15.355 26.784 15.3556 27.2694 15.3556C31.1531 15.3556 31.6134 15.3695 33.147 15.4392C34.5652 15.5041 35.3349 15.741 35.8477 15.9401C36.5265 16.2038 37.0104 16.5189 37.5192 17.028C38.0283 17.5371 38.3435 18.022 38.6077 18.7008C38.8068 19.2129 39.0441 19.9826 39.1086 21.4008C39.1783 22.9341 39.1935 23.3947 39.1935 27.2766C39.1935 31.1585 39.1783 31.6191 39.1086 33.1524C39.0438 34.5706 38.8068 35.3403 38.6077 35.8525C38.3441 36.5312 38.0283 37.0146 37.5192 37.5234C37.0101 38.0325 36.5268 38.3476 35.8477 38.6113C35.3356 38.8113 34.5652 39.0476 33.147 39.1125C31.6137 39.1822 31.1531 39.1973 27.2694 39.1973C23.3854 39.1973 22.9251 39.1822 21.3918 39.1125C19.9736 39.047 19.2039 38.8101 18.6908 38.611C18.012 38.3473 17.5272 38.0322 17.0181 37.5231C16.509 37.014 16.1938 36.5303 15.9296 35.8512C15.7305 35.3391 15.4932 34.5694 15.4287 33.1512C15.359 31.6179 15.345 31.1573 15.345 27.273C15.345 23.3887 15.359 22.9305 15.4287 21.3972C15.4935 19.979 15.7305 19.2093 15.9296 18.6965C16.1932 18.0177 16.509 17.5329 17.0181 17.0238C17.5272 16.5147 18.012 16.1995 18.6908 15.9353C19.2036 15.7353 19.9736 15.4989 21.3918 15.4338C22.7336 15.3731 23.2536 15.355 25.9645 15.3519V15.3556ZM35.0337 17.7708C34.0701 17.7708 33.2883 18.5517 33.2883 19.5156C33.2883 20.4793 34.0701 21.2611 35.0337 21.2611C35.9974 21.2611 36.7792 20.4793 36.7792 19.5156C36.7792 18.552 35.9974 17.7708 35.0337 17.7708ZM27.2695 19.8102C23.1443 19.8102 19.7997 23.1547 19.7997 27.2799C19.7997 31.4051 23.1443 34.7482 27.2695 34.7482C31.3947 34.7482 34.7381 31.4051 34.7381 27.2799C34.7381 23.1547 31.3947 19.8102 27.2695 19.8102ZM27.2694 22.4314C29.947 22.4314 32.118 24.602 32.118 27.2799C32.118 29.9575 29.947 32.1285 27.2694 32.1285C24.5915 32.1285 22.4209 29.9575 22.4209 27.2799C22.4209 24.602 24.5915 22.4314 27.2694 22.4314Z" fill="#2D2D2D"/>
</svg>
