<svg width="56" height="55" viewBox="0 0 56 55" fill="none" xmlns="http://www.w3.org/2000/svg">
<path fill-rule="evenodd" clip-rule="evenodd" d="M0.816406 27.2727C0.816406 12.2104 13.0268 0 28.0891 0C43.1514 0 55.3619 12.2104 55.3619 27.2727C55.3619 42.335 43.1514 54.5455 28.0891 54.5455C13.0268 54.5455 0.816406 42.335 0.816406 27.2727Z" fill="#F1EFFF"/>
<path d="M20.4922 16.8404C20.4521 15.0196 19.15 13.6328 17.0357 13.6328C14.9213 13.6328 13.5391 15.0196 13.5391 16.8404C13.5391 18.6235 14.8805 20.0503 16.9555 20.0503H16.995C19.15 20.0503 20.4922 18.6235 20.4922 16.8404Z" fill="#2D2D2D"/>
<path d="M20.0851 22.585H13.9045V41.1551H20.0851V22.585Z" fill="#2D2D2D"/>
<path d="M35.2586 22.1489C39.3257 22.1489 42.3747 24.8036 42.3747 30.5075L42.3745 41.1551H36.1942V31.22C36.1942 28.7246 35.2998 27.0217 33.0624 27.0217C31.3549 27.0217 30.3378 28.1697 29.8911 29.2785C29.7277 29.6758 29.6876 30.2295 29.6876 30.7845V41.1556H23.5062C23.5062 41.1556 23.5877 24.328 23.5062 22.5854H29.6876V25.2157C30.5079 23.9513 31.9771 22.1489 35.2586 22.1489Z" fill="#2D2D2D"/>
</svg>
