<svg width="55" height="55" viewBox="0 0 55 55" fill="none" xmlns="http://www.w3.org/2000/svg">
<path fill-rule="evenodd" clip-rule="evenodd" d="M0.453125 27.2727C0.453125 12.2104 12.6635 0 27.7259 0C42.7882 0 54.9986 12.2104 54.9986 27.2727C54.9986 42.335 42.7882 54.5455 27.7259 54.5455C12.6635 54.5455 0.453125 42.335 0.453125 27.2727Z" fill="#F1EFFF"/>
<path fill-rule="evenodd" clip-rule="evenodd" d="M26.9094 22.1712L26.9666 23.1149L26.0128 22.9993C22.5408 22.5563 19.5076 21.0541 16.9323 18.5312L15.6732 17.2793L15.3489 18.2038C14.6621 20.2645 15.1009 22.4408 16.5317 23.9045C17.2947 24.7134 17.123 24.8289 15.8067 24.3474C15.3489 24.1934 14.9483 24.0778 14.9101 24.1356C14.7766 24.2704 15.2344 26.023 15.5969 26.7163C16.0929 27.6793 17.104 28.623 18.2104 29.1815L19.1452 29.6245L18.0387 29.6437C16.9704 29.6437 16.9323 29.663 17.0467 30.0674C17.4283 31.3193 18.9353 32.6481 20.6141 33.2259L21.7968 33.6304L20.7667 34.2466C19.2406 35.1326 17.4473 35.6333 15.6541 35.6718C14.7957 35.6911 14.0898 35.7681 14.0898 35.8259C14.0898 36.0185 16.4172 37.097 17.7716 37.5207C21.835 38.7725 26.6614 38.2333 30.286 36.0955C32.8613 34.5741 35.4367 31.5504 36.6385 28.623C37.2871 27.063 37.9357 24.2126 37.9357 22.8452C37.9357 21.9593 37.993 21.8438 39.0613 20.7845C39.6908 20.1682 40.2822 19.4941 40.3966 19.3016C40.5874 18.9356 40.5683 18.9356 39.5954 19.263C37.9739 19.8408 37.745 19.7638 38.5462 18.8971C39.1376 18.2808 39.8434 17.1638 39.8434 16.8364C39.8434 16.7786 39.5573 16.8749 39.2329 17.0482C38.8896 17.2408 38.1265 17.5297 37.5542 17.703L36.5241 18.0305L35.5893 17.3949C35.0742 17.0482 34.3493 16.6631 33.9678 16.5475C32.9949 16.2779 31.5069 16.3164 30.6294 16.6245C28.2448 17.4912 26.7377 19.7253 26.9094 22.1712Z" fill="#2D2D2D"/>
</svg>
