<svg width="56" height="55" viewBox="0 0 56 55" fill="none" xmlns="http://www.w3.org/2000/svg">
<path fill-rule="evenodd" clip-rule="evenodd" d="M0.636719 27.2727C0.636719 12.2104 12.8471 0 27.9094 0C42.9718 0 55.1822 12.2104 55.1822 27.2727C55.1822 42.335 42.9718 54.5455 27.9094 54.5455C12.8471 54.5455 0.636719 42.335 0.636719 27.2727Z" fill="#F1EFFF"/>
<path fill-rule="evenodd" clip-rule="evenodd" d="M39.2703 17.8977C40.522 18.2412 41.5078 19.2532 41.8424 20.5385C42.4503 22.8678 42.4503 27.728 42.4503 27.728C42.4503 27.728 42.4503 32.588 41.8424 34.9175C41.5078 36.2027 40.522 37.2148 39.2703 37.5585C37.0019 38.1825 27.9048 38.1825 27.9048 38.1825C27.9048 38.1825 18.8078 38.1825 16.5392 37.5585C15.2875 37.2148 14.3017 36.2027 13.9671 34.9175C13.3594 32.588 13.3594 27.728 13.3594 27.728C13.3594 27.728 13.3594 22.8678 13.9671 20.5385C14.3017 19.2532 15.2875 18.2412 16.5392 17.8977C18.8078 17.2734 27.9048 17.2734 27.9048 17.2734C27.9048 17.2734 37.0019 17.2734 39.2703 17.8977ZM25.1776 23.637V32.7279L32.4503 28.1826L25.1776 23.637Z" fill="#2D2D2D"/>
</svg>
