<svg width="25" height="26" viewBox="0 0 25 26" fill="none" xmlns="http://www.w3.org/2000/svg">
<path d="M1.08509 23.3469H6.18403V7.89688H1.08509V23.3469ZM3.63456 0.546875C1.98491 0.546875 0.785156 1.74687 0.785156 3.24687C0.785156 4.74687 1.83494 5.94687 3.63456 5.94687C5.43419 5.94687 6.63394 4.74687 6.63394 3.24687C6.63394 1.74687 5.28422 0.546875 3.63456 0.546875ZM24.7802 14.4969V23.3469H19.6812V15.0969C19.6812 12.9969 18.9314 11.6469 16.9818 11.6469C15.4821 11.6469 14.7323 12.5469 14.4323 13.4469L14.2823 14.7969V23.3469H9.03344V7.89688H14.2823V10.1469C14.8822 9.09688 16.082 7.59687 18.7814 7.59687C22.2307 7.59687 24.7802 9.84688 24.7802 14.4969Z" fill="#2F288B"/>
</svg>
